<?xml version="1.0" encoding="UTF-8" standalone="no"?>
<svg
   viewBox="0 0 512 512"
   version="1.1"
   id="svg1"
   sodipodi:docname="logout.svg"
   inkscape:export-filename="logout.svg"
   inkscape:export-xdpi="96"
   inkscape:export-ydpi="96"
   inkscape:version="1.4 (e7c3feb100, 2024-10-09)"
   xmlns:inkscape="http://www.inkscape.org/namespaces/inkscape"
   xmlns:sodipodi="http://sodipodi.sourceforge.net/DTD/sodipodi-0.dtd"
   xmlns="http://www.w3.org/2000/svg"
   xmlns:svg="http://www.w3.org/2000/svg">
  <defs
     id="defs1" />
  <sodipodi:namedview
     id="namedview1"
     pagecolor="#505050"
     bordercolor="#ffffff"
     borderopacity="1"
     inkscape:showpageshadow="0"
     inkscape:pageopacity="0"
     inkscape:pagecheckerboard="1"
     inkscape:deskcolor="#505050"
     inkscape:zoom="0.66210938"
     inkscape:cx="256"
     inkscape:cy="256"
     inkscape:window-width="1353"
     inkscape:window-height="1025"
     inkscape:window-x="0"
     inkscape:window-y="0"
     inkscape:window-maximized="1"
     inkscape:current-layer="svg1" />
  <!--! Font Awesome Pro 6.4.0 by @fontawesome - https://fontawesome.com License - https://fontawesome.com/license (Commercial License) Copyright 2023 Fonticons, Inc. -->
  <path
     d="M352 146.2L462 256 352 365.8l0-53.8c0-13.3-10.7-24-24-24l-120 0 0-64 120 0c13.3 0 24-10.7 24-24l0-53.8zM512 256c0-11.5-4.6-22.5-12.7-30.6L383.2 109.6c-8.7-8.7-20.5-13.6-32.8-13.6c-25.6 0-46.4 20.8-46.4 46.4l0 33.6-96 0c-26.5 0-48 21.5-48 48l0 64c0 26.5 21.5 48 48 48l96 0 0 33.6c0 25.6 20.8 46.4 46.4 46.4c12.3 0 24.1-4.9 32.8-13.6L499.3 286.6c8.1-8.1 12.7-19.1 12.7-30.6zM168 80c13.3 0 24-10.7 24-24s-10.7-24-24-24L88 32C39.4 32 0 71.4 0 120L0 392c0 48.6 39.4 88 88 88l80 0c13.3 0 24-10.7 24-24s-10.7-24-24-24l-80 0c-22.1 0-40-17.9-40-40l0-272c0-22.1 17.9-40 40-40l80 0z"
     id="path1"
     style="fill:#ffffff" />
</svg>
